<?xml version="1.0" encoding="UTF-8" standalone="no"?>
<!-- Created with Inkscape (http://www.inkscape.org/) -->

<svg
   xmlns:dc="http://purl.org/dc/elements/1.1/"
   xmlns:cc="http://creativecommons.org/ns#"
   xmlns:rdf="http://www.w3.org/1999/02/22-rdf-syntax-ns#"
   xmlns:svg="http://www.w3.org/2000/svg"
   xmlns="http://www.w3.org/2000/svg"
   xmlns:sodipodi="http://sodipodi.sourceforge.net/DTD/sodipodi-0.dtd"
   xmlns:inkscape="http://www.inkscape.org/namespaces/inkscape"
   id="svg2"
   version="1.1"
   inkscape:version="0.48.4 r9939"
   width="416"
   height="257"
   sodipodi:docname="splash.svg">
  <metadata
     id="metadata8">
    <rdf:RDF>
      <cc:Work
         rdf:about="">
        <dc:format>image/svg+xml</dc:format>
        <dc:type
           rdf:resource="http://purl.org/dc/dcmitype/StillImage" />
        <dc:title />
      </cc:Work>
    </rdf:RDF>
  </metadata>
  <defs
     id="defs6" />
  <sodipodi:namedview
     pagecolor="#ffffff"
     bordercolor="#666666"
     borderopacity="1"
     objecttolerance="10"
     gridtolerance="10"
     guidetolerance="10"
     inkscape:pageopacity="0"
     inkscape:pageshadow="2"
     inkscape:window-width="1920"
     inkscape:window-height="1080"
     id="namedview4"
     showgrid="false"
     borderlayer="true"
     inkscape:showpageshadow="false"
     inkscape:zoom="2.5088693"
     inkscape:cx="171.44126"
     inkscape:cy="118.03768"
     inkscape:window-x="0"
     inkscape:window-y="0"
     inkscape:window-maximized="0"
     inkscape:current-layer="svg2" />
  <rect
     style="fill:#e4ffff;fill-opacity:1;stroke:#000000;stroke-opacity:1;stroke-width:2;stroke-miterlimit:4;stroke-dasharray:6,2;stroke-dashoffset:0"
     id="rect2987"
     width="416"
     height="257"
     x="0"
     y="5.3290705e-15" />
  <g
     style="font-size:45.44618988px;font-style:normal;font-variant:normal;font-weight:normal;font-stretch:normal;text-align:end;line-height:125%;letter-spacing:0px;word-spacing:0px;writing-mode:lr-tb;text-anchor:end;fill:#00caca;fill-opacity:1;stroke:#000000;stroke-width:1;stroke-miterlimit:4;stroke-opacity:1;font-family:Fatboy Slim BLTC BRK;-inkscape-font-specification:Fatboy Slim BLTC BRK"
     id="text3757">
    <path
       d="m 309.26102,114.27238 c 1.18159,1e-5 2.31775,0.16664 3.40846,0.49991 1.0907,0.33328 2.16626,0.71199 3.22668,1.13615 1.0907,0.39388 2.18141,0.75744 3.27213,1.09071 1.09069,0.33328 2.22684,0.49991 3.40846,0.49991 0.15147,0 0.45444,-0.0152 0.90893,-0.0455 0.48474,-0.0303 0.80286,-0.0454 0.95437,-0.0455 -0.39389,-1.33308 -1.15133,-2.40863 -2.27231,-3.22668 -1.09073,-0.84831 -2.36322,-1.5603 -3.81748,-2.13597 -1.45429,-0.60593 -2.96917,-1.15129 -4.54462,-1.63606 -1.57548,-0.48474 -3.02976,-1.01495 -4.36284,-1.59062 -1.30279,-0.60593 -2.3935,-1.31792 -3.27212,-2.13597 -0.84833,-0.84831 -1.2725,-1.92387 -1.2725,-3.22668 0,-0.8786 0.39387,-1.78752 1.1816,-2.72677 0.78774,-0.939194 1.78755,-1.848117 2.99945,-2.726769 1.24219,-0.908896 2.60558,-1.757224 4.09016,-2.544987 1.48457,-0.818001 2.92369,-1.529991 4.31739,-2.135971 1.42396,-0.605917 2.71161,-1.075527 3.86292,-1.408832 1.18159,-0.363536 2.06021,-0.54532 2.63588,-0.545354 0.87861,3.4e-5 1.48456,0.181818 1.81785,0.545354 0.36355,0.333305 0.54533,0.893808 0.54536,1.68151 -3e-5,0.666574 -0.0455,1.257374 -0.13634,1.772401 -0.0606,0.515086 -0.34845,1.045291 -0.86348,1.590617 -0.60597,0.333299 -1.424,0.802909 -2.4541,1.408831 -1.03013,0.575678 -2.16628,1.166478 -3.40846,1.7724 -1.21191,0.57568 -2.45411,1.10588 -3.72659,1.59062 -1.2422,0.45448 -2.37836,0.72716 -3.40846,0.81803 -10e-6,0.0303 -0.0152,0.10606 -0.0455,0.22723 -10e-6,0.12121 -10e-6,0.19696 0,0.22723 -10e-6,0.69686 0.45446,1.31796 1.36339,1.8633 0.93921,0.51507 2.10566,1.04528 3.49935,1.59061 1.39367,0.51508 2.8934,1.07558 4.49918,1.68151 1.60574,0.60597 3.10547,1.34825 4.49917,2.22686 1.39366,0.87864 2.54496,1.92391 3.45391,3.13579 0.9392,1.21191 1.40881,2.68134 1.40883,4.40828 -2e-5,0.78774 -0.2424,1.49973 -0.72714,2.13597 -0.48478,0.60596 -1.07558,1.13616 -1.7724,1.59062 -0.69686,0.45446 -1.46945,0.80288 -2.31775,1.04526 -0.81806,0.24238 -1.56034,0.36357 -2.22687,0.36357 -0.78775,0 -1.69667,-0.0757 -2.72677,-0.22723 -1.03013,-0.18178 -2.09054,-0.42416 -3.18123,-0.72714 -1.09072,-0.33327 -2.16628,-0.74228 -3.22668,-1.22705 -1.03012,-0.51505 -1.96934,-1.0907 -2.81766,-1.72695 -0.81804,-0.66654 -1.48459,-1.39368 -1.99964,-2.18142 -0.51506,-0.81802 -0.77259,-1.71179 -0.77258,-2.68132"
       style=""
       id="path2991" />
    <path
       d="m 331.74765,109.59142 c 0,-0.78772 0.12119,-1.39367 0.36357,-1.81785 0.27268,-0.45444 0.83318,-0.68167 1.68151,-0.68169 0.12119,2e-5 0.27267,0.0152 0.45446,0.0455 0.21208,10e-6 0.33327,0.0152 0.36357,0.0454 7.42287,7.42289 11.17975,11.14947 11.27066,11.17976 0.12117,10e-6 0.21206,10e-6 0.27267,0 0.66653,10e-6 1.21188,-0.31811 1.63607,-0.95437 0.42414,-0.63623 0.77256,-1.46941 1.04526,-2.49954 0.30295,-1.0604 0.56048,-2.25715 0.77258,-3.59025 0.21207,-1.36337 0.42415,-2.7419 0.63625,-4.1356 0.24236,-1.39366 0.49989,-2.75705 0.77258,-4.09016 0.30296,-1.36336 0.68168,-2.56011 1.13616,-3.590245 0.48474,-1.060385 1.06039,-1.908713 1.72695,-2.544986 0.69682,-0.636219 1.54515,-0.954342 2.54499,-0.95437 0.27265,2.8e-5 0.54533,0.106069 0.81803,0.318123 0.27265,0.21211 0.51503,0.469639 0.72714,0.772585 0.24235,0.303002 0.42414,0.621125 0.54536,0.95437 0.15146,0.303001 0.2272,0.560529 0.22723,0.772585 -3e-5,0.09092 -0.0455,0.272703 -0.13634,0.545355 -0.0909,0.272702 -0.19696,0.560527 -0.31812,0.863473 -0.12122,0.303 -0.22726,0.59083 -0.31813,0.86348 -0.0909,0.2727 -0.15151,0.43934 -0.18178,0.49991 -0.0909,0.42419 -0.24241,1.07558 -0.45446,1.95419 -0.18182,0.84835 -0.3939,1.83301 -0.63625,2.954 -0.24241,1.09072 -0.49993,2.24203 -0.77259,3.45391 -0.2727,1.21191 -0.53023,2.36321 -0.77258,3.45391 -0.24241,1.09072 -0.45449,2.07538 -0.63625,2.954 -0.18181,0.87864 -0.31814,1.53003 -0.40901,1.95419 -0.69687,0.78774 -1.34826,1.53002 -1.95419,2.22686 -0.57567,0.66655 -1.18162,1.25735 -1.81785,1.7724 -0.63626,0.51506 -1.3331,0.92408 -2.09052,1.22705 -0.72716,0.27268 -1.59063,0.40902 -2.59044,0.40902 -0.60596,0 -1.37854,-0.27268 -2.31775,-0.81804 -0.93923,-0.54535 -1.9239,-1.24219 -2.954,-2.09052 -1.03013,-0.84833 -2.06024,-1.80269 -3.09034,-2.86311 -1.03012,-1.0907 -1.95419,-2.16626 -2.77222,-3.22668 -0.81804,-1.0604 -1.48458,-2.06022 -1.99963,-2.99945 -0.51506,-0.9695 -0.77259,-1.75724 -0.77259,-2.3632"
       style=""
       id="path2993" />
    <path
       d="m 381.46933,118.2262 c -1.3634,0 -2.68134,0.19694 -3.95381,0.5908 -1.27252,0.39387 -2.56016,0.83318 -3.86293,1.31794 -1.27251,0.48476 -2.5753,0.92407 -3.90837,1.31793 -1.3028,0.39387 -2.68134,0.59081 -4.13561,0.59081 -0.18179,0 -0.48476,0 -0.90892,0 -0.42417,0 -0.89378,0 -1.40883,0 -0.48477,-0.0303 -0.95438,-0.0454 -1.40883,-0.0454 -0.42417,0 -0.72715,0 -0.90893,0 -0.96952,-0.60595 -1.68151,-1.40883 -2.13597,-2.40865 -0.45446,-1.03011 -0.68169,-2.09052 -0.68169,-3.18123 0,-1.21189 0.39387,-2.71161 1.1816,-4.49917 0.81803,-1.81784 1.86329,-3.72658 3.13579,-5.72622 1.30278,-1.99962 2.75706,-3.99925 4.36283,-5.9989 1.60576,-1.999608 3.21152,-3.787156 4.8173,-5.362652 1.63604,-1.605734 3.18121,-2.893375 4.63551,-3.862926 1.45426,-0.999782 2.6813,-1.499689 3.68114,-1.499725 0.9089,3.6e-5 1.68149,0.333307 2.31776,0.999816 0.66651,0.666578 0.99979,1.439163 0.99981,2.317756 -2e-5,0.272709 -0.42419,0.802914 -1.27249,1.590617 -0.84835,0.757466 -1.92391,1.681537 -3.22668,2.772217 -1.27251,1.060438 -2.68134,2.257186 -4.2265,3.590247 -1.51488,1.30282 -2.96916,2.65105 -4.36283,4.04471 -1.3634,1.36341 -2.56015,2.72679 -3.59025,4.09016 -0.99982,1.3634 -1.63607,2.63589 -1.90874,3.81748 -0.0606,0.1818 -0.0606,0.48477 0,0.90892 0.0606,0.39388 0.12118,0.81805 0.18179,1.2725 0.0606,0.42417 0.12118,0.84834 0.18178,1.27249 0.0909,0.39388 0.13633,0.6817 0.13634,0.86348 0.24237,1e-5 0.62109,0.0455 1.13615,0.13634 0.54535,0.0606 1.1513,0.12119 1.81785,0.18178 0.66653,0.0303 1.33308,0.0455 1.99963,0.0455 0.69683,-0.0303 1.33308,-0.13633 1.90874,-0.31813 0.57564,-0.18177 1.04525,-0.45445 1.40884,-0.81803 0.36355,-0.39385 0.54533,-0.93921 0.54535,-1.63606 -2e-5,-0.12118 -0.0152,-0.30296 -0.0455,-0.54535 -10e-6,-0.24237 -10e-6,-0.37871 0,-0.40902 -10e-6,-0.0606 -0.0606,-0.18177 -0.18178,-0.36357 -0.0909,-0.18177 -0.19695,-0.36356 -0.31812,-0.54535 -0.0909,-0.21207 -0.18181,-0.40901 -0.27268,-0.5908 -0.0909,-0.18178 -0.13636,-0.30297 -0.13634,-0.36357 -2e-5,-1.0301 0.51504,-1.95417 1.54517,-2.77222 1.0301,-0.81802 2.31774,-1.53001 3.86293,-2.13597 1.57544,-0.63623 3.2721,-1.18158 5.08997,-1.63606 1.81782,-0.45445 3.51448,-0.81802 5.08997,-1.09071 1.60574,-0.27266 2.95397,-0.46959 4.04471,-0.5908 1.12097,-0.15147 1.72692,-0.22721 1.81785,-0.22723 0.36353,2e-5 0.7271,0.0152 1.09071,0.0454 0.36353,2e-5 0.71195,0.0606 1.04526,0.18179 0.33323,0.0909 0.62106,0.27269 0.86348,0.54535 0.24234,0.2727 0.43927,0.66656 0.5908,1.1816 -4e-5,0.0303 -0.0455,0.12121 -0.13634,0.27268 -0.0606,0.1515 -0.13638,0.33329 -0.22723,0.54535 -0.0909,0.18181 -0.19697,0.37874 -0.31812,0.5908 -0.0909,0.18181 -0.18183,0.33329 -0.27268,0.45447 -0.0606,0.0909 -0.21212,0.25754 -0.45446,0.4999 -0.24242,0.2121 -0.39391,0.34844 -0.45446,0.40902 -0.33331,0.0606 -0.89382,0.1818 -1.68151,0.36357 -0.78777,0.1818 -1.6361,0.37873 -2.54499,0.5908 -0.87866,0.1818 -1.71184,0.36358 -2.49954,0.54535 -0.78776,0.15151 -1.33312,0.2727 -1.63606,0.36357 -0.18182,0.0606 -0.4242,0.13636 -0.72714,0.22723 -0.27271,0.0909 -0.56053,0.1818 -0.86348,0.27268 -0.2727,0.0909 -0.53023,0.1818 -0.77258,0.27268 -0.24241,0.0909 -0.37875,0.1515 -0.40902,0.18178 -0.0303,2e-5 -0.0758,0.0606 -0.13634,0.18179 -0.0303,0.1212 -0.0455,0.21209 -0.0454,0.27267 -3e-5,0.0606 0.0151,0.15151 0.0454,0.27268 0.0606,0.0909 0.10602,0.1515 0.13634,0.18179 0.69681,1.03012 1.28761,1.9239 1.7724,2.68132 0.51503,0.75745 0.98464,1.42399 1.40883,1.99963 0.42414,0.57566 0.83315,1.09072 1.22705,1.54517 0.42413,0.45447 0.89374,0.89379 1.40883,1.31794 0.51503,0.39388 1.12097,0.80289 1.81785,1.22705 0.69681,0.42417 1.54513,0.90893 2.54499,1.45428 0.0303,0.0909 0.0454,0.31812 0.0454,0.68169 0.0303,0.36357 0.0454,0.5908 0.0455,0.68169 -4e-5,0.51506 -0.12123,1.01497 -0.36357,1.49973 -0.24242,0.51506 -0.56054,0.96952 -0.95437,1.36338 -0.3939,0.39387 -0.84837,0.71199 -1.36339,0.95437 -0.51509,0.27268 -1.04529,0.40902 -1.59061,0.40902 -0.75747,0 -1.42402,-0.24238 -1.99964,-0.72714 -0.54538,-0.45446 -1.06044,-1.03011 -1.54517,-1.72695 -0.45449,-0.66655 -0.8938,-1.40883 -1.31794,-2.22687 -0.42419,-0.81803 -0.8635,-1.56031 -1.31793,-2.22686 -0.45449,-0.69684 -0.96955,-1.27249 -1.54518,-1.72696 -0.54537,-0.48475 -1.18162,-0.72713 -1.90874,-0.72713"
       style=""
       id="path2995" />
    <path
       d="m 176.27695,175.94286 c -0.87864,0 -1.68153,0.19694 -2.40865,0.5908 -0.72715,0.39387 -1.43914,0.83318 -2.13597,1.31794 -0.66656,0.48476 -1.34825,0.92407 -2.04508,1.31794 -0.66655,0.39387 -1.40884,0.5908 -2.22687,0.5908 -0.90892,0 -1.63606,-0.10604 -2.18141,-0.31813 -0.54536,-0.24237 -0.96952,-0.57565 -1.2725,-0.99981 -0.30297,-0.45446 -0.51505,-0.98467 -0.63624,-1.59062 -0.0909,-0.60594 -0.13634,-1.28764 -0.13634,-2.04508 0,-5.12026 0.57565,-10.11933 1.72695,-14.99724 1.1513,-4.90816 2.75707,-9.71031 4.8173,-14.40644 0.0303,-0.12116 0.12118,-0.24235 0.27268,-0.36357 0.15148,-0.12116 0.31811,-0.2272 0.49991,-0.31813 0.21207,-0.0908 0.409,-0.15145 0.5908,-0.18178 0.21207,-0.0606 0.37871,-0.0757 0.4999,-0.0454 0.93922,0.39391 1.7421,1.12105 2.40865,2.18142 0.66653,1.03015 1.25733,2.25719 1.7724,3.68114 0.54534,1.42401 1.0301,2.96918 1.45428,4.63551 0.42415,1.66639 0.84831,3.30245 1.27249,4.90819 0.45445,1.57549 0.93921,3.06006 1.45428,4.45373 0.51504,1.3634 1.12099,2.46926 1.81785,3.31757 0.30296,0.36358 0.71197,0.63626 1.22705,0.81803 0.54533,0.1515 1.13613,0.27269 1.7724,0.36357 0.63622,0.0909 1.27247,0.16665 1.90874,0.22723 0.66652,0.0606 1.25732,0.1818 1.7724,0.36357 0.54533,0.1515 0.98464,0.37873 1.31794,0.68169 0.33324,0.30299 0.49988,0.7423 0.49991,1.31794 -3e-5,0.69685 -0.25756,1.19676 -0.77259,1.49973 -0.51508,0.27268 -1.07558,0.51506 -1.68151,0.72714 -0.60597,0.21209 -1.16647,0.48476 -1.68151,0.81803 -0.51508,0.30298 -0.7726,0.84833 -0.77258,1.63606 -2e-5,0.1212 0.0151,0.28783 0.0454,0.49991 0.0303,0.18179 0.0606,0.28783 0.0909,0.31812 l 4.63551,4.63551 c -3e-5,0.0303 -3e-5,0.13634 0,0.31813 0.0303,0.21208 0.0454,0.37872 0.0454,0.49991 -3e-5,1.0604 -0.28786,1.96933 -0.86348,2.72677 -0.54538,0.78773 -1.36341,1.18159 -2.4541,1.1816 -0.84835,-1e-5 -1.57549,-0.25754 -2.18141,-0.77259 -0.60597,-0.51506 -1.15133,-1.1513 -1.63607,-1.90874 -0.45448,-0.75744 -0.89379,-1.59061 -1.31794,-2.49954 -0.42418,-0.90892 -0.89379,-1.7421 -1.40883,-2.49954 -0.48477,-0.75743 -1.06043,-1.39368 -1.72695,-1.90874 -0.63626,-0.51505 -1.424,-0.77258 -2.3632,-0.77258 m -5.68078,-10.1345 c -1e-5,0.36358 -0.0152,0.80289 -0.0454,1.31794 -0.0303,0.48477 -0.0303,0.99983 0,1.54517 0.0606,0.51507 0.16662,1.01497 0.31812,1.49972 0.15148,0.48477 0.40901,0.89379 0.77258,1.22705 0.30297,-0.0909 0.66654,-0.24237 1.09071,-0.45446 0.42416,-0.21208 0.83317,-0.45446 1.22705,-0.72714 0.39385,-0.30297 0.72713,-0.62109 0.99982,-0.95437 0.27266,-0.36356 0.409,-0.72713 0.40901,-1.09071 -1e-5,-0.0606 -1e-5,-0.15148 0,-0.27268 -1e-5,-0.12118 -0.0152,-0.19692 -0.0454,-0.22723 -0.0909,-0.27266 -0.27269,-0.72712 -0.54536,-1.36339 -0.27269,-0.63623 -0.56051,-1.28762 -0.86348,-1.95418 -0.27268,-0.69683 -0.54536,-1.34822 -0.81803,-1.95419 -0.27269,-0.60593 -0.45447,-1.01494 -0.54535,-1.22705 -0.0606,-0.0909 -0.21209,-0.24235 -0.45446,-0.45446 -0.2121,-0.24236 -0.36358,-0.39384 -0.45447,-0.45446 -0.36357,0.33329 -0.6211,0.74231 -0.77258,1.22705 -0.1515,0.48478 -0.25754,0.98468 -0.31812,1.49972 -0.0303,0.51508 -0.0303,1.03013 0,1.54517 0.0303,0.48478 0.0454,0.90894 0.0454,1.2725"
       id="path2997"
       style="" />
    <path
       d="m 213.72745,180.66926 c -0.3636,-0.27268 -0.93925,-0.66654 -1.72696,-1.1816 -0.75746,-0.54535 -1.62094,-1.1513 -2.59043,-1.81785 -0.96954,-0.69684 -1.99965,-1.40882 -3.09034,-2.13597 -1.06043,-0.75743 -2.09054,-1.46942 -3.09034,-2.13597 -0.96954,-0.66654 -1.84816,-1.25734 -2.63588,-1.7724 -0.75745,-0.54535 -1.31795,-0.93921 -1.68151,-1.1816 -0.0909,-0.0606 -0.24239,-0.13633 -0.45446,-0.22723 -0.1818,-0.12118 -0.37873,-0.22722 -0.5908,-0.31813 -0.1818,-0.0909 -0.36358,-0.16662 -0.54536,-0.22723 -0.1515,-0.0909 -0.24239,-0.13632 -0.27268,-0.13634 -0.39387,2e-5 -0.72714,0.2424 -0.99981,0.72714 -0.24239,0.45448 -0.49992,1.04528 -0.77259,1.7724 -0.24238,0.69685 -0.53021,1.45429 -0.86347,2.27231 -0.33328,0.81804 -0.80289,1.59063 -1.40884,2.31776 -0.57565,0.69685 -1.31794,1.28765 -2.22686,1.7724 -0.90893,0.45447 -2.04508,0.6817 -3.40846,0.68169 0,-0.72713 0.0454,-1.7421 0.13633,-3.04489 0.12119,-1.33308 0.30298,-2.75706 0.54536,-4.27194 0.24238,-1.54516 0.54535,-3.10548 0.90892,-4.68096 0.39387,-1.60575 0.86348,-3.06003 1.40883,-4.36283 0.54536,-1.30278 1.16645,-2.36319 1.8633,-3.18124 0.72713,-0.81801 1.54516,-1.22702 2.45409,-1.22705 1.18159,3e-5 2.31775,0.40904 3.40847,1.22705 1.12099,0.78776 2.22685,1.80272 3.31757,3.0449 1.12099,1.21191 2.25714,2.52985 3.40846,3.95382 1.15129,1.39369 2.36318,2.71163 3.6357,3.95381 1.27247,1.21191 2.6207,2.22688 4.04471,3.0449 1.45425,0.78774 3.01457,1.18161 4.68096,1.1816 -3e-5,-1.93903 -0.24241,-3.68113 -0.72714,-5.22631 -0.45449,-1.54516 -0.9544,-2.99944 -1.49973,-4.36284 -0.54538,-1.36336 -1.06043,-2.6813 -1.54517,-3.95382 -0.45448,-1.30276 -0.68172,-2.6813 -0.68169,-4.1356 -3e-5,-0.818 0.15146,-1.59059 0.45446,-2.31775 0.33325,-0.75741 0.77256,-1.40881 1.31794,-1.95419 0.57563,-0.54533 1.22702,-0.98464 1.95419,-1.31794 0.7574,-0.33324 1.56029,-0.49988 2.40865,-0.49991 0.39383,3e-5 0.68166,0.10607 0.86347,0.31813 0.21205,0.18181 0.36354,0.40904 0.45447,0.68169 0.0908,0.2727 0.1363,0.57568 0.13633,0.90892 -3e-5,0.30301 -3e-5,0.59083 0,0.86348 -3e-5,0.42419 -0.0606,0.81806 -0.18178,1.1816 -0.0909,0.3333 -0.21212,0.66657 -0.36357,0.99982 -0.12122,0.33329 -0.24241,0.66657 -0.36357,0.99981 -0.0909,0.303 -0.13637,0.65142 -0.13634,1.04527 -3e-5,1.3634 0.24235,2.68134 0.72714,3.95381 0.51502,1.27252 1.06038,2.54501 1.63606,3.81748 0.60592,1.24221 1.15127,2.51471 1.63607,3.81748 0.51502,1.30281 0.77254,2.66619 0.77258,4.09016 -4e-5,0.87863 -0.19697,1.80271 -0.5908,2.77222 -0.3636,0.93922 -0.87866,1.8027 -1.54517,2.59043 -0.63628,0.75744 -1.37857,1.39369 -2.22686,1.90874 -0.84836,0.48476 -1.74214,0.72714 -2.68133,0.72714 -0.0606,0 -0.15152,-0.0152 -0.27268,-0.0454 -0.12121,0 -0.19696,0 -0.22723,0 -0.0909,-0.0303 -0.2727,-0.0757 -0.54535,-0.13633 -0.27271,-0.0909 -0.56053,-0.18179 -0.86348,-0.27268 -0.2727,-0.12119 -0.54538,-0.22723 -0.81803,-0.31812 -0.2727,-0.0909 -0.45449,-0.15149 -0.54535,-0.18179"
       style=""
       id="path2999" />
    <path
       d="m 224.78933,172.80707 c 0,-0.48475 -0.0152,-1.121 -0.0454,-1.90874 0,-0.78772 0.0757,-1.56031 0.22723,-2.31776 0.18178,-0.75742 0.46961,-1.40881 0.86348,-1.95418 0.42416,-0.54534 1.04526,-0.81802 1.86329,-0.81803 0.54535,1e-5 1.04526,0.24239 1.49972,0.72714 0.45446,0.48477 0.86348,1.10587 1.22705,1.86329 0.36356,0.72715 0.68169,1.54518 0.95437,2.45409 0.27267,0.87864 0.48475,1.72697 0.63625,2.54499 0.18177,0.81804 0.28782,1.56033 0.31812,2.22686 0.0606,0.66655 0.0454,1.12101 -0.0455,1.36339 -0.21208,0.60595 -0.45446,1.10586 -0.72713,1.49972 -0.27269,0.36358 -0.59081,0.6514 -0.95437,0.86348 -0.33328,0.21209 -0.712,0.34842 -1.13616,0.40902 -0.39387,0.0606 -0.81803,0.0909 -1.27249,0.0909 -0.93923,0 -1.65122,-0.22723 -2.13597,-0.68169 -0.45447,-0.48476 -0.78774,-1.07556 -0.99982,-1.77241 -0.18178,-0.72713 -0.27268,-1.49971 -0.27268,-2.31775 0,-0.81803 0,-1.57546 0,-2.27231"
       style=""
       id="path3001" />
    <path
       d="m 259.17364,167.67165 c -0.81806,0.54537 -1.60579,1.31795 -2.36321,2.31776 -0.75746,0.96953 -1.51489,1.99964 -2.27231,3.09034 -0.75745,1.09071 -1.51489,2.15112 -2.2723,3.18123 -0.75746,1.03012 -1.54519,1.87845 -2.36321,2.54499 -0.0606,0.0303 -0.2121,0.0606 -0.45446,0.0909 -0.24239,0.0303 -0.39388,0.0454 -0.45446,0.0454 -0.66656,0 -1.37855,-0.30298 -2.13597,-0.90893 -0.72715,-0.60594 -1.43914,-1.31793 -2.13597,-2.13597 -0.66656,-0.81802 -1.28766,-1.6512 -1.8633,-2.49954 -0.54536,-0.84832 -0.96952,-1.51486 -1.27249,-1.99963 -0.0606,1e-5 -0.1515,1e-5 -0.27268,0 -0.0909,-0.0303 -0.16664,-0.0454 -0.22723,-0.0454 -0.57566,1e-5 -0.98467,0.21209 -1.22704,0.63625 -0.21209,0.42417 -0.36358,0.95438 -0.45447,1.59061 -0.0909,0.60596 -0.16664,1.2725 -0.22723,1.99964 -0.0606,0.72714 -0.22723,1.40883 -0.49991,2.04508 -0.27268,0.60595 -0.69684,1.121 -1.27249,1.54517 -0.54536,0.42416 -1.34824,0.63624 -2.40865,0.63624 -0.54535,0 -0.98467,-0.0909 -1.31794,-0.27267 -0.30297,-0.21208 -0.45446,-0.75744 -0.45446,-1.63607 l 0,-16.67875 c 0,-0.42414 0.18179,-0.9089 0.54536,-1.45428 0.36356,-0.54533 0.80288,-1.04524 1.31794,-1.49972 0.54535,-0.48474 1.10585,-0.89375 1.6815,-1.22705 0.60595,-0.33325 1.12101,-0.49988 1.54517,-0.49991 1.121,3e-5 2.06022,0.34845 2.81767,1.04527 0.78772,0.69686 1.46942,1.56034 2.04508,2.59043 0.57564,1.03013 1.09069,2.15114 1.54517,3.36302 0.48474,1.21191 0.9695,2.33292 1.45428,3.36301 0.48474,1.03013 1.01495,1.89361 1.59061,2.59044 0.57564,0.69685 1.28763,1.04527 2.13597,1.04526 0.0606,1e-5 0.21207,1e-5 0.45447,0 0.24236,-0.0303 0.40899,-0.0454 0.4999,-0.0455 0.15147,-0.27266 0.39385,-0.75742 0.72714,-1.45427 0.36355,-0.69683 0.74227,-1.43912 1.13616,-2.22687 0.39384,-0.81801 0.75741,-1.57545 1.09071,-2.27231 0.36354,-0.72712 0.60592,-1.22703 0.72713,-1.49972 0.18177,-0.39385 0.36355,-0.95435 0.54536,-1.68151 0.21206,-0.75742 0.46959,-1.4997 0.77258,-2.22686 0.30296,-0.72712 0.66652,-1.34822 1.09071,-1.8633 0.45444,-0.54533 1.01494,-0.818 1.68151,-0.81803 0.81801,3e-5 1.54514,0.2727 2.18142,0.81803 0.66651,0.54538 1.25731,1.25737 1.7724,2.13597 0.51503,0.87865 0.96949,1.86332 1.36339,2.95401 0.39383,1.06043 0.74225,2.10569 1.04526,3.13578 0.33324,1.03013 0.62106,1.99965 0.86348,2.90856 0.24234,0.87864 0.48472,1.57548 0.72713,2.09052 0.30295,0.66656 0.77256,1.3028 1.40884,1.90874 0.63621,0.57566 1.27245,1.16646 1.90874,1.77241 0.63621,0.57565 1.18156,1.16645 1.63606,1.7724 0.48472,0.60595 0.7271,1.2422 0.72714,1.90874 -4e-5,0.54535 -0.10608,1.01496 -0.31812,1.40883 -0.21213,0.36357 -0.49995,0.66654 -0.86348,0.90892 -0.33331,0.21209 -0.72718,0.36357 -1.1816,0.45446 -0.4545,0.0909 -0.90896,0.13634 -1.36339,0.13634 -1.09074,0 -1.96937,-0.25752 -2.63588,-0.77258 -0.63628,-0.51506 -1.16648,-1.1816 -1.59061,-1.99963 -0.3939,-0.81803 -0.72717,-1.72695 -0.99982,-2.72678 -0.27271,-1.0301 -0.57568,-2.02992 -0.90892,-2.99944 -0.33331,-0.96951 -0.74232,-1.86329 -1.22705,-2.68133 -0.48479,-0.81802 -1.15133,-1.45426 -1.99963,-1.90874"
       style=""
       id="path3003" />
    <path
       d="m 286.77368,172.30716 c -1.69667,1e-5 -3.09035,0.16665 -4.18105,0.49991 -1.06042,0.30298 -1.93905,0.712 -2.63588,1.22705 -0.69685,0.48476 -1.2725,1.01497 -1.72695,1.59061 -0.42418,0.54536 -0.84834,1.07557 -1.2725,1.59062 -0.42417,0.48476 -0.90893,0.89378 -1.45427,1.22705 -0.54536,0.30297 -1.25735,0.45446 -2.13598,0.45446 -0.18178,0 -0.42416,0.0152 -0.72713,0.0454 -0.27268,0 -0.56051,-0.0152 -0.86348,-0.0454 -0.30298,-0.0606 -0.57566,-0.15149 -0.81803,-0.27268 -0.24238,-0.15148 -0.39387,-0.39386 -0.45447,-0.72714 0,-0.12118 -0.0151,-0.33327 -0.0454,-0.63624 0,-0.33327 -0.0152,-0.66654 -0.0455,-0.99982 0,-0.33327 0,-0.65139 0,-0.95437 0,-0.33327 0,-0.5605 0,-0.68169 0,-1.121 0.0758,-1.96933 0.22723,-2.54499 0.15149,-0.60594 0.36357,-1.13614 0.63625,-1.59062 0.27268,-0.45445 0.57565,-0.93921 0.90892,-1.45427 0.36357,-0.54535 0.72714,-1.30278 1.09071,-2.27231 0.15149,-0.42415 0.31812,-1.0604 0.49991,-1.90874 0.18178,-0.84832 0.39386,-1.78754 0.63625,-2.81767 0.24237,-1.03009 0.5302,-2.0905 0.86347,-3.18123 0.36357,-1.09069 0.78773,-2.07535 1.2725,-2.954 0.48475,-0.8786 1.0604,-1.60574 1.72695,-2.18142 0.69684,-0.57562 1.49972,-0.86345 2.40865,-0.86348 0.99981,3e-5 1.86328,0.28786 2.59043,0.86348 0.75743,0.57568 1.43912,1.31797 2.04508,2.22686 0.63623,0.87865 1.22703,1.86332 1.7724,2.95401 0.54534,1.09073 1.09069,2.15114 1.63607,3.18123 0.57563,1.03013 1.18158,1.96935 1.81784,2.81766 0.66653,0.84835 1.40881,1.46944 2.22687,1.8633 0.15146,0.0909 0.43929,0.16665 0.86347,0.22723 0.45444,0.0303 0.92405,0.10605 1.40884,0.22723 0.51503,0.1212 0.99979,0.28784 1.45427,0.49991 0.45444,0.21209 0.75741,0.51507 0.90893,0.90892 -0.60598,0.30299 -1.09074,0.59081 -1.45428,0.86348 -0.36359,0.27269 -0.66657,0.57566 -0.90892,0.90892 -0.21211,0.30299 -0.3636,0.65141 -0.45447,1.04526 -0.0606,0.36358 -0.0909,0.78775 -0.0909,1.2725 -2e-5,0.60595 0.10602,1.13616 0.31813,1.59061 0.21205,0.42418 0.45443,0.84834 0.72713,1.2725 0.27266,0.42417 0.51504,0.86348 0.72714,1.31794 0.21206,0.42417 0.3181,0.92407 0.31813,1.49972 -3e-5,0.93922 -0.27271,1.56032 -0.81803,1.86329 -0.54538,0.30298 -1.25737,0.45447 -2.13598,0.45447 -0.66656,0 -1.21192,-0.19694 -1.63606,-0.5908 -0.42418,-0.42417 -0.78775,-0.95437 -1.09071,-1.59062 -0.27269,-0.63624 -0.51507,-1.30279 -0.72714,-1.99963 -0.2121,-0.72714 -0.46963,-1.40883 -0.77258,-2.04508 -0.2727,-0.63624 -0.62112,-1.1513 -1.04526,-1.54517 -0.39389,-0.42416 -0.92409,-0.63624 -1.59062,-0.63625 m -7.08961,-8.31665 c -1e-5,0.72715 -1e-5,1.3331 0,1.81785 0.0303,0.48477 0.13633,0.87864 0.31813,1.1816 0.18177,0.27269 0.4696,0.46962 0.86348,0.5908 0.39385,0.1212 0.95435,0.1818 1.6815,0.18178 0.27267,2e-5 0.57564,2e-5 0.90893,0 0.33326,2e-5 0.63623,-0.0454 0.90892,-0.13634 0.30296,-0.0909 0.54534,-0.22721 0.72714,-0.40901 0.21207,-0.21207 0.31811,-0.51504 0.31812,-0.90893 -10e-6,-0.0606 -0.0152,-0.15147 -0.0454,-0.27267 -2e-5,-0.12118 -0.0152,-0.18177 -0.0455,-0.18179 -0.1212,-0.21206 -0.36358,-0.59078 -0.72714,-1.13615 -0.33328,-0.54534 -0.69685,-1.10584 -1.09071,-1.68151 -0.39388,-0.60593 -0.77259,-1.16643 -1.13615,-1.68151 -0.33328,-0.51504 -0.57566,-0.87861 -0.72714,-1.09071 -0.0606,2e-5 -0.1515,2e-5 -0.27268,0 -0.0909,-0.0303 -0.15149,-0.0454 -0.18178,-0.0455 -0.51507,3e-5 -0.87864,0.15151 -1.09071,0.45447 -0.21209,0.27269 -0.34843,0.62111 -0.40902,1.04526 -0.0606,0.39389 -0.0758,0.8029 -0.0454,1.22705 0.0303,0.42418 0.0454,0.7726 0.0454,1.04526"
       style=""
       id="path3005" />
    <path
       d="m 297.7752,163.99051 c -0.42416,-0.51504 -0.69684,-0.9695 -0.81803,-1.36339 -0.0909,-0.39384 -0.13634,-0.8786 -0.13634,-1.45428 0,-0.39384 0.0303,-0.74226 0.0909,-1.04526 0.0606,-0.33325 0.34842,-0.59078 0.86347,-0.77258 5.12027,-1.15128 10.19509,-2.06021 15.22448,-2.72677 5.02935,-0.69682 10.16477,-1.04524 15.40626,-1.04527 0.24234,3e-5 0.56047,3e-5 0.95437,0 0.42413,3e-5 0.81799,0.0152 1.1816,0.0454 0.39383,3e-5 0.74225,0.0152 1.04526,0.0454 0.30294,2e-5 0.46957,2e-5 0.49991,0 l 0.95437,0.90892 -0.95437,0.90892 c -0.54539,0.54538 -1.37857,0.9544 -2.49954,1.22705 -1.12104,0.2727 -2.37839,0.49993 -3.77204,0.68169 -1.36341,0.15151 -2.78739,0.303 -4.27194,0.45447 -1.4543,0.12121 -2.78739,0.31814 -3.99926,0.5908 -1.18163,0.2424 -2.16629,0.60597 -2.95401,1.0907 -0.75745,0.48478 -1.13617,1.15133 -1.13615,1.99964 -2e-5,1.18161 0.19691,2.33292 0.5908,3.45391 0.42415,1.09072 0.87861,2.16628 1.36338,3.22668 0.48474,1.06042 0.92406,2.15113 1.31794,3.27212 0.42415,1.09072 0.63623,2.22687 0.63625,3.40847 -2e-5,1.06041 -0.13636,1.81785 -0.40901,2.27231 -0.2424,0.45446 -0.90895,0.68169 -1.99964,0.68169 -1.06043,0 -1.90875,-0.27268 -2.54498,-0.81803 -0.63627,-0.54535 -1.15132,-1.24219 -1.54517,-2.09053 -0.39389,-0.87862 -0.71201,-1.84814 -0.95437,-2.90855 -0.2424,-1.0907 -0.53022,-2.18141 -0.86348,-3.27213 -0.30299,-1.0907 -0.69686,-2.12081 -1.1816,-3.09034 -0.45448,-0.9998 -1.10587,-1.83298 -1.95419,-2.49954 -0.81804,-0.69682 -1.8936,-1.16644 -3.22668,-1.40883 -1.30279,-0.24236 -2.93886,-0.16662 -4.90819,0.22723"
       style=""
       id="path3007" />
    <path
       d="m 327.93089,172.80707 c 0,-0.48475 -0.0151,-1.121 -0.0454,-1.90874 0,-0.78772 0.0757,-1.56031 0.22723,-2.31776 0.18179,-0.75742 0.46961,-1.40881 0.86348,-1.95418 0.42416,-0.54534 1.04526,-0.81802 1.8633,-0.81803 0.54535,1e-5 1.04525,0.24239 1.49972,0.72714 0.45446,0.48477 0.86347,1.10587 1.22705,1.86329 0.36356,0.72715 0.68168,1.54518 0.95437,2.45409 0.27267,0.87864 0.48475,1.72697 0.63624,2.54499 0.18178,0.81804 0.28782,1.56033 0.31813,2.22686 0.0606,0.66655 0.0454,1.12101 -0.0455,1.36339 -0.21209,0.60595 -0.45447,1.10586 -0.72714,1.49972 -0.27268,0.36358 -0.59081,0.6514 -0.95437,0.86348 -0.33328,0.21209 -0.71199,0.34842 -1.13615,0.40902 -0.39387,0.0606 -0.81804,0.0909 -1.2725,0.0909 -0.93922,0 -1.65121,-0.22723 -2.13597,-0.68169 -0.45446,-0.48476 -0.78773,-1.07556 -0.99981,-1.77241 -0.18179,-0.72713 -0.27268,-1.49971 -0.27268,-2.31775 0,-0.81803 0,-1.57546 0,-2.27231"
       style=""
       id="path3009" />
    <path
       d="m 336.22907,172.67073 c 0,-1.54516 0.24238,-3.10548 0.72714,-4.68096 0.48476,-1.57545 1.19675,-2.99943 2.13597,-4.27194 0.93922,-1.30277 2.10567,-2.34803 3.49936,-3.13579 1.42397,-0.81801 3.06003,-1.22702 4.90819,-1.22704 1.27248,2e-5 2.51467,0.39389 3.72658,1.1816 1.24218,0.75745 2.34804,1.71182 3.31758,2.86311 0.96949,1.15132 1.75723,2.39351 2.3632,3.72659 0.60593,1.3331 0.9089,2.54499 0.90892,3.63569 -2e-5,1.78756 -0.43933,3.28728 -1.31794,4.49917 -0.84835,1.18161 -1.93905,2.13598 -3.27212,2.86311 -1.33311,0.69685 -2.81768,1.19676 -4.45373,1.49973 -1.63607,0.30297 -3.22669,0.45446 -4.77185,0.45446 -0.24239,0 -0.57566,-0.0152 -0.99982,-0.0455 -0.42417,-0.0303 -0.84833,-0.0606 -1.27249,-0.0909 -0.39387,-0.0303 -0.75744,-0.0606 -1.09071,-0.0909 -0.33327,-0.0303 -0.51506,-0.0606 -0.54535,-0.0909 l -3.72659,-3.72659 c 0,-0.0303 -0.0152,-0.16663 -0.0455,-0.40902 0,-0.27267 -0.0152,-0.59079 -0.0454,-0.95437 0,-0.36356 -0.0152,-0.72713 -0.0455,-1.09071 0,-0.36356 0,-0.66653 0,-0.90892 m 4.68096,-0.68169 c -1e-5,0.81804 0.15148,1.49973 0.45446,2.04508 0.33327,0.51506 0.74228,0.93922 1.22705,1.27249 0.51505,0.30298 1.0907,0.53021 1.72695,0.68169 0.63624,0.1212 1.28764,0.18179 1.95419,0.18179 0.69683,0 1.45427,-0.0454 2.27231,-0.13634 0.81802,-0.12119 1.57545,-0.33327 2.27231,-0.63625 0.69682,-0.30297 1.27248,-0.74228 1.72695,-1.31794 0.45445,-0.57564 0.68168,-1.31793 0.6817,-2.22686 -2e-5,-0.78772 -0.2727,-1.54516 -0.81804,-2.27231 -0.51507,-0.72713 -1.16646,-1.37852 -1.95418,-1.95419 -0.75745,-0.57563 -1.59063,-1.03009 -2.49954,-1.36338 -0.87864,-0.33326 -1.66637,-0.49989 -2.3632,-0.49991 -0.69685,2e-5 -1.3331,0.2121 -1.90874,0.63625 -0.57566,0.42418 -1.07557,0.95438 -1.49973,1.59061 -0.39387,0.60597 -0.71199,1.27251 -0.95437,1.99964 -0.21209,0.72715 -0.31813,1.39369 -0.31812,1.99963"
       style=""
       id="path3011" />
    <path
       d="m 384.59447,180.66926 c -0.3636,-0.27268 -0.93925,-0.66654 -1.72696,-1.1816 -0.75746,-0.54535 -1.62094,-1.1513 -2.59043,-1.81785 -0.96954,-0.69684 -1.99965,-1.40882 -3.09034,-2.13597 -1.06043,-0.75743 -2.09054,-1.46942 -3.09034,-2.13597 -0.96954,-0.66654 -1.84816,-1.25734 -2.63588,-1.7724 -0.75745,-0.54535 -1.31795,-0.93921 -1.68151,-1.1816 -0.0909,-0.0606 -0.24239,-0.13633 -0.45446,-0.22723 -0.1818,-0.12118 -0.37873,-0.22722 -0.5908,-0.31813 -0.1818,-0.0909 -0.36358,-0.16662 -0.54536,-0.22723 -0.1515,-0.0909 -0.24239,-0.13632 -0.27268,-0.13634 -0.39387,2e-5 -0.72714,0.2424 -0.99981,0.72714 -0.24239,0.45448 -0.49992,1.04528 -0.77259,1.7724 -0.24238,0.69685 -0.53021,1.45429 -0.86347,2.27231 -0.33328,0.81804 -0.80289,1.59063 -1.40884,2.31776 -0.57565,0.69685 -1.31794,1.28765 -2.22686,1.7724 -0.90893,0.45447 -2.04508,0.6817 -3.40846,0.68169 0,-0.72713 0.0454,-1.7421 0.13633,-3.04489 0.12119,-1.33308 0.30298,-2.75706 0.54536,-4.27194 0.24238,-1.54516 0.54535,-3.10548 0.90892,-4.68096 0.39387,-1.60575 0.86348,-3.06003 1.40883,-4.36283 0.54535,-1.30278 1.16645,-2.36319 1.8633,-3.18124 0.72713,-0.81801 1.54516,-1.22702 2.45409,-1.22705 1.18159,3e-5 2.31775,0.40904 3.40847,1.22705 1.12099,0.78776 2.22685,1.80272 3.31757,3.0449 1.12099,1.21191 2.25714,2.52985 3.40846,3.95382 1.15129,1.39369 2.36318,2.71163 3.6357,3.95381 1.27247,1.21191 2.6207,2.22688 4.04471,3.0449 1.45425,0.78774 3.01457,1.18161 4.68096,1.1816 -3e-5,-1.93903 -0.24241,-3.68113 -0.72714,-5.22631 -0.45449,-1.54516 -0.9544,-2.99944 -1.49973,-4.36284 -0.54538,-1.36336 -1.06043,-2.6813 -1.54517,-3.95382 -0.45449,-1.30276 -0.68172,-2.6813 -0.68169,-4.1356 -3e-5,-0.818 0.15146,-1.59059 0.45446,-2.31775 0.33325,-0.75741 0.77256,-1.40881 1.31794,-1.95419 0.57562,-0.54533 1.22702,-0.98464 1.95419,-1.31794 0.7574,-0.33324 1.56029,-0.49988 2.40865,-0.49991 0.39383,3e-5 0.68166,0.10607 0.86347,0.31813 0.21205,0.18181 0.36354,0.40904 0.45446,0.68169 0.0909,0.2727 0.13631,0.57568 0.13634,0.90892 -3e-5,0.30301 -3e-5,0.59083 0,0.86348 -3e-5,0.42419 -0.0606,0.81806 -0.18178,1.1816 -0.0909,0.3333 -0.21212,0.66657 -0.36357,0.99982 -0.12122,0.33329 -0.24241,0.66657 -0.36357,0.99981 -0.0909,0.303 -0.13637,0.65142 -0.13634,1.04527 -3e-5,1.3634 0.24235,2.68134 0.72714,3.95381 0.51502,1.27252 1.06038,2.54501 1.63606,3.81748 0.60592,1.24221 1.15127,2.51471 1.63607,3.81748 0.51502,1.30281 0.77254,2.66619 0.77258,4.09016 -4e-5,0.87863 -0.19697,1.80271 -0.5908,2.77222 -0.3636,0.93922 -0.87866,1.8027 -1.54517,2.59043 -0.63628,0.75744 -1.37857,1.39369 -2.22686,1.90874 -0.84836,0.48476 -1.74214,0.72714 -2.68133,0.72714 -0.0606,0 -0.15152,-0.0152 -0.27268,-0.0454 -0.12121,0 -0.19696,0 -0.22723,0 -0.0909,-0.0303 -0.2727,-0.0757 -0.54535,-0.13633 -0.27271,-0.0909 -0.56053,-0.18179 -0.86348,-0.27268 -0.2727,-0.12119 -0.54538,-0.22723 -0.81803,-0.31812 -0.2727,-0.0909 -0.45449,-0.15149 -0.54535,-0.18179"
       style=""
       id="path3013" />
    <path
       d="m 176.4424,229.1149 c -1.69668,1e-5 -3.09036,0.16664 -4.18105,0.49991 -1.06042,0.30298 -1.93905,0.712 -2.63588,1.22704 -0.69685,0.48477 -1.2725,1.01498 -1.72696,1.59062 -0.42417,0.54536 -0.84833,1.07557 -1.27249,1.59062 -0.42417,0.48476 -0.90893,0.89378 -1.45428,1.22704 -0.54536,0.30298 -1.25735,0.45447 -2.13597,0.45447 -0.18179,0 -0.42417,0.0152 -0.72714,0.0454 -0.27268,10e-6 -0.5605,-0.0151 -0.86347,-0.0454 -0.30298,-0.0606 -0.57566,-0.15149 -0.81804,-0.27268 -0.24238,-0.15149 -0.39386,-0.39386 -0.45446,-0.72714 0,-0.12119 -0.0152,-0.33327 -0.0454,-0.63625 0,-0.33326 -0.0152,-0.66654 -0.0454,-0.99981 0,-0.33327 0,-0.65139 0,-0.95437 0,-0.33327 0,-0.5605 0,-0.6817 0,-1.12099 0.0757,-1.96932 0.22723,-2.54498 0.15149,-0.60594 0.36357,-1.13615 0.63625,-1.59062 0.27267,-0.45445 0.57565,-0.93921 0.90892,-1.45428 0.36357,-0.54534 0.72714,-1.30277 1.09071,-2.27231 0.15148,-0.42415 0.31812,-1.06039 0.49991,-1.90874 0.18178,-0.84831 0.39386,-1.78753 0.63624,-2.81766 0.24238,-1.03009 0.5302,-2.0905 0.86348,-3.18123 0.36357,-1.09069 0.78773,-2.07535 1.27249,-2.95401 0.48476,-0.8786 1.06041,-1.60573 1.72696,-2.18141 0.69683,-0.57563 1.49971,-0.86345 2.40865,-0.86348 0.9998,3e-5 1.86328,0.28785 2.59043,0.86348 0.75742,0.57568 1.43912,1.31796 2.04508,2.22686 0.63623,0.87865 1.22703,1.86332 1.7724,2.954 0.54534,1.09073 1.09069,2.15114 1.63606,3.18124 0.57564,1.03013 1.18158,1.96935 1.81785,2.81766 0.66652,0.84834 1.40881,1.46944 2.22686,1.86329 0.15147,0.0909 0.43929,0.16665 0.86348,0.22723 0.45444,0.0303 0.92405,0.10606 1.40883,0.22724 0.51504,0.1212 0.99979,0.28784 1.45428,0.4999 0.45444,0.2121 0.75741,0.51507 0.90893,0.90893 -0.60598,0.30298 -1.09074,0.59081 -1.45428,0.86347 -0.3636,0.27269 -0.66657,0.57567 -0.90893,0.90893 -0.2121,0.30298 -0.36359,0.6514 -0.45446,1.04526 -0.0606,0.36358 -0.0909,0.78774 -0.0909,1.27249 -2e-5,0.60596 0.10602,1.13617 0.31812,1.59062 0.21206,0.42417 0.45444,0.84834 0.72714,1.27249 0.27265,0.42417 0.51503,0.86349 0.72714,1.31794 0.21206,0.42417 0.3181,0.92408 0.31812,1.49973 -2e-5,0.93922 -0.2727,1.56032 -0.81803,1.86329 -0.54538,0.30298 -1.25737,0.45446 -2.13597,0.45446 -0.66656,0 -1.21192,-0.19693 -1.63606,-0.5908 -0.42419,-0.42416 -0.78776,-0.95436 -1.09071,-1.59061 -0.2727,-0.63625 -0.51508,-1.30279 -0.72714,-1.99964 -0.2121,-0.72713 -0.46963,-1.40882 -0.77258,-2.04507 -0.2727,-0.63624 -0.62112,-1.1513 -1.04527,-1.54517 -0.39388,-0.42416 -0.92409,-0.63624 -1.59061,-0.63625 m -7.08961,-8.31665 c -1e-5,0.72715 -1e-5,1.3331 0,1.81784 0.0303,0.48478 0.13633,0.87864 0.31813,1.1816 0.18177,0.2727 0.4696,0.46963 0.86347,0.5908 0.39386,0.12121 0.95436,0.1818 1.68151,0.18179 0.27267,1e-5 0.57564,1e-5 0.90893,0 0.33325,1e-5 0.63623,-0.0454 0.90892,-0.13634 0.30296,-0.0909 0.54534,-0.22722 0.72714,-0.40901 0.21207,-0.21207 0.31811,-0.51505 0.31812,-0.90893 -1e-5,-0.0606 -0.0152,-0.15147 -0.0454,-0.27268 -2e-5,-0.12117 -0.0152,-0.18176 -0.0454,-0.18178 -0.12121,-0.21207 -0.36358,-0.59078 -0.72714,-1.13615 -0.33329,-0.54534 -0.69685,-1.10584 -1.09071,-1.68151 -0.39388,-0.60593 -0.7726,-1.16644 -1.13615,-1.68151 -0.33329,-0.51504 -0.57567,-0.87861 -0.72714,-1.09071 -0.0606,2e-5 -0.1515,2e-5 -0.27268,0 -0.0909,-0.0303 -0.1515,-0.0454 -0.18178,-0.0455 -0.51507,2e-5 -0.87864,0.15151 -1.09071,0.45446 -0.21209,0.2727 -0.34843,0.62112 -0.40902,1.04527 -0.0606,0.39388 -0.0757,0.8029 -0.0454,1.22704 0.0303,0.42419 0.0454,0.77261 0.0454,1.04527"
       style=""
       id="path3015" />
    <path
       d="m 190.1707,230.61462 c -1e-5,-0.27267 -1e-5,-0.54534 0,-0.81803 0.0303,-0.30296 0.0909,-0.57564 0.18178,-0.81803 0.0909,-0.24237 0.22723,-0.4393 0.40902,-0.5908 0.21208,-0.15148 0.4999,-0.22722 0.86348,-0.22723 0.0606,1e-5 0.21207,0.0152 0.45446,0.0454 0.21207,0.0909 0.72713,0.33329 1.54517,0.72714 0.81802,0.36358 1.69665,0.75745 2.63588,1.1816 0.93921,0.42418 1.81783,0.81804 2.63588,1.18161 0.81801,0.36357 1.33307,0.57565 1.54517,0.63624 0.0606,0.0303 0.25751,0.0606 0.5908,0.0909 0.33325,1e-5 0.59078,1e-5 0.77258,0 0.24237,1e-5 0.49989,-0.0151 0.77259,-0.0454 0.30296,-0.0303 0.57563,-0.0909 0.81803,-0.18179 0.24236,-0.0909 0.43929,-0.22722 0.5908,-0.40901 0.15147,-0.21208 0.22721,-0.4999 0.22723,-0.86348 -2e-5,-0.72713 -0.43933,-1.40882 -1.31794,-2.04508 -0.87864,-0.66653 -1.9845,-1.31793 -3.31757,-1.95418 -1.3028,-0.66654 -2.72678,-1.33308 -4.27194,-1.99964 -1.54518,-0.69682 -2.98431,-1.40881 -4.31739,-2.13597 -1.3028,-0.75742 -2.3935,-1.57545 -3.27213,-2.45409 -0.87862,-0.87861 -1.31794,-1.83298 -1.31794,-2.86311 0,-0.0606 0.0152,-0.21206 0.0454,-0.45446 0.0303,-0.24236 0.0606,-0.39385 0.0909,-0.45447 1.27249,-1.45425 2.54499,-2.66615 3.81748,-3.63569 1.27249,-0.96949 2.60558,-1.74208 3.99927,-2.31776 1.42397,-0.57562 2.93884,-0.96949 4.54462,-1.1816 1.60575,-0.24235 3.363,-0.36354 5.27175,-0.36357 0.18177,3e-5 0.48475,3e-5 0.90893,0 0.42414,3e-5 0.8786,0.0152 1.36338,0.0455 0.51504,3e-5 0.98465,0.0152 1.40884,0.0454 0.45444,3e-5 0.77256,3e-5 0.95437,0 0.75741,0.36359 1.27247,0.75746 1.54517,1.1816 0.27265,0.39389 0.40899,0.9241 0.40901,1.59061 -2e-5,0.0606 -0.0152,0.21211 -0.0454,0.45447 -0.0303,0.2424 -0.0455,0.39389 -0.0454,0.45446 -0.15151,0.18181 -0.48478,0.59082 -0.99982,1.22704 -0.51508,0.60598 -1.10588,1.24222 -1.7724,1.90874 -0.66656,0.63627 -1.37855,1.21192 -2.13597,1.72696 -0.75745,0.51508 -1.4543,0.7726 -2.09052,0.77258 -0.66656,2e-5 -1.15132,-0.19691 -1.45428,-0.5908 -0.30299,-0.39384 -0.56052,-0.83315 -0.77259,-1.31794 -0.1818,-0.48473 -0.39388,-0.92404 -0.63624,-1.31793 -0.2424,-0.39385 -0.63626,-0.59078 -1.1816,-0.59081 -1.09073,3e-5 -2.16628,0.22726 -3.22668,0.6817 -1.03013,0.45448 -1.84816,1.16647 -2.4541,2.13597 0.66654,1.09073 1.54516,1.99965 2.63588,2.72677 1.0907,0.69686 2.25715,1.31796 3.49936,1.86329 1.27248,0.54537 2.52982,1.07558 3.77203,1.59062 1.27248,0.51507 2.42378,1.12102 3.45391,1.81785 1.03009,0.69685 1.86327,1.53003 2.49954,2.49954 0.63622,0.96953 0.95435,2.18142 0.95437,3.63569 -2e-5,1.2725 -0.31815,2.27232 -0.95437,2.99945 -0.60597,0.72714 -1.37855,1.28765 -2.31775,1.68151 -0.90895,0.36357 -1.90876,0.5908 -2.99945,0.68169 -1.09073,0.0909 -2.09054,0.13634 -2.99945,0.13634 -0.90894,0 -2.0148,-0.0909 -3.31757,-0.27267 -1.3028,-0.18179 -2.545,-0.49991 -3.72659,-0.95437 -1.18161,-0.45446 -2.19657,-1.07556 -3.0449,-1.8633 -0.81803,-0.78773 -1.22705,-1.78754 -1.22704,-2.99945"
       style=""
       id="path3017" />
    <path
       d="m 215.20161,230.61462 c -10e-6,-0.27267 -10e-6,-0.54534 0,-0.81803 0.0303,-0.30296 0.0909,-0.57564 0.18178,-0.81803 0.0909,-0.24237 0.22723,-0.4393 0.40902,-0.5908 0.21207,-0.15148 0.4999,-0.22722 0.86347,-0.22723 0.0606,1e-5 0.21208,0.0152 0.45447,0.0454 0.21207,0.0909 0.72713,0.33329 1.54517,0.72714 0.81802,0.36358 1.69665,0.75745 2.63588,1.1816 0.93921,0.42418 1.81783,0.81804 2.63587,1.18161 0.81802,0.36357 1.33308,0.57565 1.54518,0.63624 0.0606,0.0303 0.25751,0.0606 0.5908,0.0909 0.33325,1e-5 0.59078,1e-5 0.77258,0 0.24236,1e-5 0.49989,-0.0151 0.77259,-0.0454 0.30295,-0.0303 0.57563,-0.0909 0.81803,-0.18179 0.24236,-0.0909 0.43929,-0.22722 0.5908,-0.40901 0.15147,-0.21208 0.22721,-0.4999 0.22723,-0.86348 -2e-5,-0.72713 -0.43933,-1.40882 -1.31794,-2.04508 -0.87864,-0.66653 -1.9845,-1.31793 -3.31757,-1.95418 -1.30281,-0.66654 -2.72678,-1.33308 -4.27194,-1.99964 -1.54518,-0.69682 -2.98431,-1.40881 -4.31739,-2.13597 -1.3028,-0.75742 -2.3935,-1.57545 -3.27213,-2.45409 -0.87862,-0.87861 -1.31794,-1.83298 -1.31794,-2.86311 0,-0.0606 0.0151,-0.21206 0.0454,-0.45446 0.0303,-0.24236 0.0606,-0.39385 0.0909,-0.45447 1.27249,-1.45425 2.54498,-2.66615 3.81748,-3.63569 1.27249,-0.96949 2.60558,-1.74208 3.99927,-2.31776 1.42397,-0.57562 2.93884,-0.96949 4.54461,-1.1816 1.60576,-0.24235 3.36301,-0.36354 5.27176,-0.36357 0.18177,3e-5 0.48474,3e-5 0.90893,0 0.42414,3e-5 0.8786,0.0152 1.36338,0.0455 0.51504,3e-5 0.98465,0.0152 1.40883,0.0454 0.45444,3e-5 0.77257,3e-5 0.95437,0 0.75742,0.36359 1.27247,0.75746 1.54517,1.1816 0.27266,0.39389 0.409,0.9241 0.40902,1.59061 -2e-5,0.0606 -0.0152,0.21211 -0.0454,0.45447 -0.0303,0.2424 -0.0455,0.39389 -0.0454,0.45446 -0.15151,0.18181 -0.48479,0.59082 -0.99982,1.22704 -0.51508,0.60598 -1.10588,1.24222 -1.7724,1.90874 -0.66656,0.63627 -1.37855,1.21192 -2.13597,1.72696 -0.75746,0.51508 -1.4543,0.7726 -2.09053,0.77258 -0.66656,2e-5 -1.15132,-0.19691 -1.45427,-0.5908 -0.30299,-0.39384 -0.56052,-0.83315 -0.77259,-1.31794 -0.1818,-0.48473 -0.39388,-0.92404 -0.63625,-1.31793 -0.24239,-0.39385 -0.63626,-0.59078 -1.1816,-0.59081 -1.09072,3e-5 -2.16628,0.22726 -3.22668,0.6817 -1.03012,0.45448 -1.84815,1.16647 -2.45409,2.13597 0.66654,1.09073 1.54516,1.99965 2.63588,2.72677 1.0907,0.69686 2.25715,1.31796 3.49936,1.86329 1.27247,0.54537 2.52982,1.07558 3.77203,1.59062 1.27247,0.51507 2.42378,1.12102 3.45391,1.81785 1.03009,0.69685 1.86327,1.53003 2.49954,2.49954 0.63622,0.96953 0.95435,2.18142 0.95437,3.63569 -2e-5,1.2725 -0.31815,2.27232 -0.95437,2.99945 -0.60597,0.72714 -1.37856,1.28765 -2.31776,1.68151 -0.90894,0.36357 -1.90875,0.5908 -2.99944,0.68169 -1.09073,0.0909 -2.09054,0.13634 -2.99945,0.13634 -0.90894,0 -2.0148,-0.0909 -3.31757,-0.27267 -1.30281,-0.18179 -2.545,-0.49991 -3.72659,-0.95437 -1.18161,-0.45446 -2.19657,-1.07556 -3.0449,-1.8633 -0.81803,-0.78773 -1.22705,-1.78754 -1.22704,-2.99945"
       style=""
       id="path3019" />
    <path
       d="m 236.50593,229.61481 c 0,-0.48475 -0.0152,-1.121 -0.0455,-1.90874 0,-0.78773 0.0757,-1.56031 0.22723,-2.31776 0.18178,-0.75742 0.46961,-1.40882 0.86348,-1.95418 0.42416,-0.54534 1.04526,-0.81802 1.86329,-0.81804 0.54535,2e-5 1.04526,0.2424 1.49973,0.72714 0.45445,0.48478 0.86347,1.10587 1.22704,1.8633 0.36357,0.72715 0.68169,1.54518 0.95437,2.45409 0.27267,0.87864 0.48475,1.72696 0.63625,2.54499 0.18178,0.81804 0.28782,1.56032 0.31812,2.22686 0.0606,0.66655 0.0454,1.12101 -0.0454,1.36339 -0.21209,0.60595 -0.45447,1.10586 -0.72714,1.49972 -0.27269,0.36357 -0.59081,0.6514 -0.95437,0.86348 -0.33328,0.21208 -0.712,0.34842 -1.13616,0.40901 -0.39387,0.0606 -0.81803,0.0909 -1.27249,0.0909 -0.93922,0 -1.65121,-0.22723 -2.13597,-0.6817 -0.45446,-0.48475 -0.78774,-1.07555 -0.99982,-1.7724 -0.18178,-0.72713 -0.27267,-1.49972 -0.27267,-2.31775 0,-0.81803 0,-1.57546 0,-2.27231"
       style=""
       id="path3021" />
    <path
       d="m 248.57615,230.61462 c -1e-5,-0.27267 -1e-5,-0.54534 0,-0.81803 0.0303,-0.30296 0.0909,-0.57564 0.18178,-0.81803 0.0909,-0.24237 0.22723,-0.4393 0.40902,-0.5908 0.21208,-0.15148 0.4999,-0.22722 0.86348,-0.22723 0.0606,1e-5 0.21207,0.0152 0.45446,0.0454 0.21207,0.0909 0.72713,0.33329 1.54517,0.72714 0.81802,0.36358 1.69665,0.75745 2.63588,1.1816 0.93921,0.42418 1.81783,0.81804 2.63588,1.18161 0.81801,0.36357 1.33307,0.57565 1.54517,0.63624 0.0606,0.0303 0.25751,0.0606 0.5908,0.0909 0.33325,1e-5 0.59078,1e-5 0.77258,0 0.24237,1e-5 0.4999,-0.0151 0.77259,-0.0454 0.30296,-0.0303 0.57563,-0.0909 0.81803,-0.18179 0.24236,-0.0909 0.4393,-0.22722 0.5908,-0.40901 0.15147,-0.21208 0.22721,-0.4999 0.22723,-0.86348 -2e-5,-0.72713 -0.43933,-1.40882 -1.31794,-2.04508 -0.87864,-0.66653 -1.9845,-1.31793 -3.31757,-1.95418 -1.3028,-0.66654 -2.72678,-1.33308 -4.27194,-1.99964 -1.54518,-0.69682 -2.98431,-1.40881 -4.31739,-2.13597 -1.30279,-0.75742 -2.3935,-1.57545 -3.27213,-2.45409 -0.87862,-0.87861 -1.31794,-1.83298 -1.31794,-2.86311 0,-0.0606 0.0152,-0.21206 0.0454,-0.45446 0.0303,-0.24236 0.0606,-0.39385 0.0909,-0.45447 1.2725,-1.45425 2.54499,-2.66615 3.81748,-3.63569 1.27249,-0.96949 2.60558,-1.74208 3.99927,-2.31776 1.42397,-0.57562 2.93884,-0.96949 4.54462,-1.1816 1.60575,-0.24235 3.363,-0.36354 5.27176,-0.36357 0.18176,3e-5 0.48474,3e-5 0.90892,0 0.42414,3e-5 0.87861,0.0152 1.36338,0.0455 0.51504,3e-5 0.98465,0.0152 1.40884,0.0454 0.45444,3e-5 0.77256,3e-5 0.95437,0 0.75741,0.36359 1.27247,0.75746 1.54517,1.1816 0.27265,0.39389 0.40899,0.9241 0.40901,1.59061 -2e-5,0.0606 -0.0152,0.21211 -0.0454,0.45447 -0.0303,0.2424 -0.0455,0.39389 -0.0455,0.45446 -0.15151,0.18181 -0.48478,0.59082 -0.99982,1.22704 -0.51508,0.60598 -1.10588,1.24222 -1.7724,1.90874 -0.66656,0.63627 -1.37855,1.21192 -2.13597,1.72696 -0.75745,0.51508 -1.45429,0.7726 -2.09052,0.77258 -0.66656,2e-5 -1.15132,-0.19691 -1.45428,-0.5908 -0.30299,-0.39384 -0.56052,-0.83315 -0.77259,-1.31794 -0.1818,-0.48473 -0.39388,-0.92404 -0.63624,-1.31793 -0.2424,-0.39385 -0.63626,-0.59078 -1.1816,-0.59081 -1.09072,3e-5 -2.16628,0.22726 -3.22668,0.6817 -1.03013,0.45448 -1.84816,1.16647 -2.4541,2.13597 0.66654,1.09073 1.54516,1.99965 2.63588,2.72677 1.0907,0.69686 2.25715,1.31796 3.49936,1.86329 1.27248,0.54537 2.52982,1.07558 3.77203,1.59062 1.27248,0.51507 2.42378,1.12102 3.45391,1.81785 1.03009,0.69685 1.86327,1.53003 2.49954,2.49954 0.63622,0.96953 0.95435,2.18142 0.95437,3.63569 -2e-5,1.2725 -0.31815,2.27232 -0.95437,2.99945 -0.60597,0.72714 -1.37855,1.28765 -2.31775,1.68151 -0.90895,0.36357 -1.90876,0.5908 -2.99945,0.68169 -1.09073,0.0909 -2.09054,0.13634 -2.99945,0.13634 -0.90894,0 -2.01479,-0.0909 -3.31757,-0.27267 -1.3028,-0.18179 -2.545,-0.49991 -3.72659,-0.95437 -1.18161,-0.45446 -2.19657,-1.07556 -3.04489,-1.8633 -0.81804,-0.78773 -1.22706,-1.78754 -1.22705,-2.99945"
       style=""
       id="path3023" />
    <path
       d="m 270.88029,220.79825 c -0.42416,-0.51504 -0.69684,-0.9695 -0.81803,-1.36339 -0.0909,-0.39385 -0.13634,-0.87861 -0.13634,-1.45428 0,-0.39384 0.0303,-0.74226 0.0909,-1.04526 0.0606,-0.33325 0.34842,-0.59078 0.86348,-0.77259 5.12027,-1.15128 10.19509,-2.0602 15.22448,-2.72677 5.02935,-0.69681 10.16477,-1.04523 15.40625,-1.04526 0.24235,3e-5 0.56047,3e-5 0.95437,0 0.42413,3e-5 0.818,0.0152 1.1816,0.0454 0.39384,2e-5 0.74226,0.0152 1.04527,0.0454 0.30294,3e-5 0.46957,3e-5 0.4999,0 l 0.95437,0.90893 -0.95437,0.90892 c -0.54538,0.54538 -1.37856,0.95439 -2.49954,1.22705 -1.12103,0.2727 -2.37838,0.49993 -3.77203,0.68169 -1.36341,0.15151 -2.78739,0.303 -4.27194,0.45446 -1.4543,0.12121 -2.78739,0.31815 -3.99927,0.5908 -1.18162,0.2424 -2.16628,0.60597 -2.954,1.09071 -0.75745,0.48478 -1.13617,1.15132 -1.13615,1.99963 -2e-5,1.18162 0.19691,2.33292 0.5908,3.45391 0.42414,1.09073 0.87861,2.16629 1.36338,3.22668 0.48474,1.06043 0.92406,2.15113 1.31794,3.27213 0.42415,1.09072 0.63623,2.22687 0.63625,3.40846 -2e-5,1.06042 -0.13636,1.81785 -0.40902,2.27231 -0.2424,0.45447 -0.90894,0.6817 -1.99963,0.6817 -1.06043,0 -1.90876,-0.27268 -2.54499,-0.81804 -0.63626,-0.54535 -1.15131,-1.24219 -1.54517,-2.09052 -0.39388,-0.87862 -0.712,-1.84814 -0.95437,-2.90856 -0.24239,-1.0907 -0.53021,-2.1814 -0.86347,-3.27212 -0.30299,-1.0907 -0.69686,-2.12081 -1.1816,-3.09034 -0.45448,-0.9998 -1.10587,-1.83298 -1.95419,-2.49954 -0.81804,-0.69683 -1.8936,-1.16644 -3.22668,-1.40883 -1.3028,-0.24237 -2.93886,-0.16662 -4.90819,0.22723"
       style=""
       id="path3025" />
    <path
       d="m 317.39659,229.1149 c -1.69667,1e-5 -3.09035,0.16664 -4.18105,0.49991 -1.06042,0.30298 -1.93905,0.712 -2.63588,1.22704 -0.69685,0.48477 -1.2725,1.01498 -1.72695,1.59062 -0.42418,0.54536 -0.84834,1.07557 -1.2725,1.59062 -0.42417,0.48476 -0.90893,0.89378 -1.45427,1.22704 -0.54536,0.30298 -1.25735,0.45447 -2.13598,0.45447 -0.18178,0 -0.42416,0.0152 -0.72713,0.0454 -0.27268,10e-6 -0.56051,-0.0151 -0.86348,-0.0454 -0.30298,-0.0606 -0.57565,-0.15149 -0.81803,-0.27268 -0.24238,-0.15149 -0.39387,-0.39386 -0.45447,-0.72714 0,-0.12119 -0.0151,-0.33327 -0.0454,-0.63625 0,-0.33326 -0.0152,-0.66654 -0.0455,-0.99981 0,-0.33327 0,-0.65139 0,-0.95437 0,-0.33327 0,-0.5605 0,-0.6817 0,-1.12099 0.0758,-1.96932 0.22723,-2.54498 0.15149,-0.60594 0.36357,-1.13615 0.63625,-1.59062 0.27268,-0.45445 0.57565,-0.93921 0.90892,-1.45428 0.36357,-0.54534 0.72714,-1.30277 1.09071,-2.27231 0.15149,-0.42415 0.31812,-1.06039 0.49991,-1.90874 0.18178,-0.84831 0.39386,-1.78753 0.63625,-2.81766 0.24237,-1.03009 0.5302,-2.0905 0.86347,-3.18123 0.36357,-1.09069 0.78773,-2.07535 1.2725,-2.95401 0.48475,-0.8786 1.0604,-1.60573 1.72695,-2.18141 0.69684,-0.57563 1.49972,-0.86345 2.40865,-0.86348 0.99981,3e-5 1.86328,0.28785 2.59043,0.86348 0.75743,0.57568 1.43912,1.31796 2.04508,2.22686 0.63623,0.87865 1.22703,1.86332 1.7724,2.954 0.54534,1.09073 1.09069,2.15114 1.63607,3.18124 0.57563,1.03013 1.18158,1.96935 1.81784,2.81766 0.66653,0.84834 1.40881,1.46944 2.22687,1.86329 0.15146,0.0909 0.43929,0.16665 0.86348,0.22723 0.45443,0.0303 0.92404,0.10606 1.40883,0.22724 0.51503,0.1212 0.99979,0.28784 1.45428,0.4999 0.45443,0.2121 0.7574,0.51507 0.90892,0.90893 -0.60598,0.30298 -1.09074,0.59081 -1.45428,0.86347 -0.36359,0.27269 -0.66657,0.57567 -0.90892,0.90893 -0.21211,0.30298 -0.3636,0.6514 -0.45446,1.04526 -0.0606,0.36358 -0.0909,0.78774 -0.0909,1.27249 -2e-5,0.60596 0.10602,1.13617 0.31813,1.59062 0.21205,0.42417 0.45443,0.84834 0.72714,1.27249 0.27265,0.42417 0.51503,0.86349 0.72713,1.31794 0.21206,0.42417 0.3181,0.92408 0.31813,1.49973 -3e-5,0.93922 -0.27271,1.56032 -0.81803,1.86329 -0.54538,0.30298 -1.25737,0.45446 -2.13597,0.45446 -0.66657,0 -1.21193,-0.19693 -1.63607,-0.5908 -0.42418,-0.42416 -0.78775,-0.95436 -1.09071,-1.59061 -0.27269,-0.63625 -0.51507,-1.30279 -0.72713,-1.99964 -0.21211,-0.72713 -0.46964,-1.40882 -0.77259,-2.04507 -0.2727,-0.63624 -0.62112,-1.1513 -1.04526,-1.54517 -0.39389,-0.42416 -0.92409,-0.63624 -1.59062,-0.63625 m -7.0896,-8.31665 c -10e-6,0.72715 -10e-6,1.3331 0,1.81784 0.0303,0.48478 0.13632,0.87864 0.31812,1.1816 0.18177,0.2727 0.4696,0.46963 0.86348,0.5908 0.39385,0.12121 0.95435,0.1818 1.68151,0.18179 0.27266,1e-5 0.57563,1e-5 0.90892,0 0.33326,1e-5 0.63623,-0.0454 0.90892,-0.13634 0.30296,-0.0909 0.54534,-0.22722 0.72714,-0.40901 0.21207,-0.21207 0.31811,-0.51505 0.31813,-0.90893 -2e-5,-0.0606 -0.0152,-0.15147 -0.0455,-0.27268 -2e-5,-0.12117 -0.0152,-0.18176 -0.0454,-0.18178 -0.1212,-0.21207 -0.36358,-0.59078 -0.72714,-1.13615 -0.33328,-0.54534 -0.69685,-1.10584 -1.0907,-1.68151 -0.39388,-0.60593 -0.7726,-1.16644 -1.13616,-1.68151 -0.33328,-0.51504 -0.57566,-0.87861 -0.72714,-1.09071 -0.0606,2e-5 -0.1515,2e-5 -0.27268,0 -0.0909,-0.0303 -0.15149,-0.0454 -0.18178,-0.0455 -0.51507,2e-5 -0.87864,0.15151 -1.09071,0.45446 -0.21209,0.2727 -0.34843,0.62112 -0.40901,1.04527 -0.0606,0.39388 -0.0758,0.8029 -0.0454,1.22704 0.0303,0.42419 0.0454,0.77261 0.0454,1.04527"
       style=""
       id="path3027" />
    <path
       d="m 353.43898,237.477 c -0.3636,-0.27268 -0.93925,-0.66654 -1.72696,-1.1816 -0.75746,-0.54535 -1.62093,-1.1513 -2.59043,-1.81785 -0.96954,-0.69684 -1.99965,-1.40883 -3.09034,-2.13597 -1.06043,-0.75743 -2.09054,-1.46942 -3.09034,-2.13597 -0.96953,-0.66654 -1.84816,-1.25734 -2.63588,-1.7724 -0.75745,-0.54535 -1.31795,-0.93921 -1.68151,-1.18161 -0.0909,-0.0606 -0.24239,-0.13632 -0.45446,-0.22723 -0.1818,-0.12117 -0.37873,-0.22722 -0.5908,-0.31812 -0.1818,-0.0909 -0.36358,-0.16662 -0.54535,-0.22723 -0.1515,-0.0909 -0.24239,-0.13633 -0.27268,-0.13634 -0.39388,1e-5 -0.72715,0.24239 -0.99982,0.72714 -0.24239,0.45447 -0.49991,1.04527 -0.77258,1.7724 -0.24239,0.69685 -0.53022,1.45429 -0.86348,2.27231 -0.33328,0.81804 -0.80289,1.59062 -1.40883,2.31776 -0.57566,0.69684 -1.31795,1.28764 -2.22687,1.7724 -0.90892,0.45446 -2.04508,0.68169 -3.40846,0.68169 0,-0.72713 0.0454,-1.7421 0.13634,-3.04489 0.12119,-1.33309 0.30297,-2.75706 0.54535,-4.27195 0.24238,-1.54515 0.54536,-3.10547 0.90893,-4.68095 0.39386,-1.60575 0.86347,-3.06003 1.40883,-4.36284 0.54535,-1.30277 1.16645,-2.36318 1.86329,-3.18123 0.72714,-0.81801 1.54517,-1.22702 2.4541,-1.22705 1.18159,3e-5 2.31774,0.40904 3.40846,1.22705 1.12099,0.78775 2.22685,1.80272 3.31757,3.04489 1.12099,1.21192 2.25715,2.52986 3.40847,3.95382 1.15128,1.3937 2.36318,2.71164 3.63569,3.95382 1.27247,1.21191 2.62071,2.22687 4.04471,3.0449 1.45425,0.78774 3.01457,1.1816 4.68096,1.1816 -3e-5,-1.93903 -0.24241,-3.68113 -0.72714,-5.22632 -0.45449,-1.54515 -0.9544,-2.99943 -1.49972,-4.36283 -0.54538,-1.36337 -1.06044,-2.68131 -1.54517,-3.95382 -0.45449,-1.30277 -0.68172,-2.6813 -0.6817,-4.1356 -2e-5,-0.81801 0.15147,-1.59059 0.45447,-2.31776 0.33324,-0.75741 0.77255,-1.4088 1.31793,-1.95418 0.57563,-0.54533 1.22702,-0.98464 1.95419,-1.31794 0.75741,-0.33324 1.56029,-0.49988 2.40865,-0.49991 0.39383,3e-5 0.68166,0.10607 0.86348,0.31812 0.21205,0.18182 0.36353,0.40905 0.45446,0.6817 0.0909,0.2727 0.1363,0.57568 0.13634,0.90892 -4e-5,0.303 -4e-5,0.59083 0,0.86348 -4e-5,0.42419 -0.0606,0.81806 -0.18179,1.1816 -0.0909,0.3333 -0.21211,0.66657 -0.36357,0.99981 -0.12122,0.3333 -0.24241,0.66657 -0.36357,0.99982 -0.0909,0.303 -0.13637,0.65142 -0.13634,1.04526 -3e-5,1.36341 0.24235,2.68135 0.72714,3.95382 0.51503,1.27251 1.06038,2.54501 1.63607,3.81748 0.60591,1.24221 1.15126,2.5147 1.63606,3.81748 0.51502,1.3028 0.77255,2.66619 0.77258,4.09016 -3e-5,0.87863 -0.19697,1.8027 -0.5908,2.77222 -0.3636,0.93922 -0.87866,1.8027 -1.54517,2.59043 -0.63628,0.75744 -1.37856,1.39368 -2.22686,1.90874 -0.84836,0.48476 -1.74213,0.72714 -2.68132,0.72714 -0.0606,0 -0.15152,-0.0151 -0.27268,-0.0454 -0.12122,0 -0.19696,0 -0.22723,0 -0.0909,-0.0303 -0.27271,-0.0757 -0.54536,-0.13634 -0.2727,-0.0909 -0.56053,-0.18178 -0.86347,-0.27267 -0.27271,-0.12119 -0.54539,-0.22723 -0.81804,-0.31813 -0.2727,-0.0909 -0.45448,-0.15148 -0.54535,-0.18178"
       style=""
       id="path3029" />
    <path
       d="m 365.50068,220.79825 c -0.42416,-0.51504 -0.69684,-0.9695 -0.81803,-1.36339 -0.0909,-0.39385 -0.13634,-0.87861 -0.13634,-1.45428 0,-0.39384 0.0303,-0.74226 0.0909,-1.04526 0.0606,-0.33325 0.34842,-0.59078 0.86347,-0.77259 5.12027,-1.15128 10.19509,-2.0602 15.22448,-2.72677 5.02935,-0.69681 10.16477,-1.04523 15.40626,-1.04526 0.24234,3e-5 0.56047,3e-5 0.95437,0 0.42413,3e-5 0.81799,0.0152 1.1816,0.0454 0.39383,2e-5 0.74225,0.0152 1.04526,0.0454 0.30294,3e-5 0.46957,3e-5 0.49991,0 l 0.95437,0.90893 -0.95437,0.90892 c -0.54539,0.54538 -1.37857,0.95439 -2.49954,1.22705 -1.12104,0.2727 -2.37839,0.49993 -3.77204,0.68169 -1.36341,0.15151 -2.78739,0.303 -4.27194,0.45446 -1.4543,0.12121 -2.78739,0.31815 -3.99926,0.5908 -1.18162,0.2424 -2.16629,0.60597 -2.95401,1.09071 -0.75745,0.48478 -1.13617,1.15132 -1.13615,1.99963 -2e-5,1.18162 0.19692,2.33292 0.5908,3.45391 0.42415,1.09073 0.87861,2.16629 1.36339,3.22668 0.48473,1.06043 0.92405,2.15113 1.31793,3.27213 0.42415,1.09072 0.63623,2.22687 0.63625,3.40846 -2e-5,1.06042 -0.13636,1.81785 -0.40901,2.27231 -0.2424,0.45447 -0.90895,0.6817 -1.99964,0.6817 -1.06043,0 -1.90875,-0.27268 -2.54498,-0.81804 -0.63627,-0.54535 -1.15132,-1.24219 -1.54517,-2.09052 -0.39388,-0.87862 -0.71201,-1.84814 -0.95437,-2.90856 -0.2424,-1.0907 -0.53022,-2.1814 -0.86348,-3.27212 -0.30299,-1.0907 -0.69686,-2.12081 -1.1816,-3.09034 -0.45448,-0.9998 -1.10587,-1.83298 -1.95419,-2.49954 -0.81804,-0.69683 -1.8936,-1.16644 -3.22668,-1.40883 -1.30279,-0.24237 -2.93886,-0.16662 -4.90819,0.22723"
       style=""
       id="path3031" />
  </g>
  <g
     id="g3797"
     transform="translate(253.65854,116.11924)">
    <path
       inkscape:connector-curvature="0"
       id="path3122"
       d="m -170.59304,-23.861393 26.56153,28.8220795 6.21653,-6.21652 -6.21653,-8.4771 14.12846,-12.9981795 4.52111,2.82568 9.04224,22.6055595 -10.17252,8.4770905 -3.39083,-1.13029 -11.86791,10.1725 -18.08445,-7.91193 z"
       style="fill:#008080;stroke:#000000;stroke-width:4.76431227;stroke-linecap:butt;stroke-linejoin:miter;stroke-miterlimit:4;stroke-opacity:1;stroke-dasharray:none" />
    <path
       sodipodi:nodetypes="ccccccccccccc"
       inkscape:connector-curvature="0"
       id="path3124"
       d="m -196.58943,45.650687 0,15.82384 -9.04222,11.86788 -32.02322,18.43808 8.2874,27.338273 23.73582,0 2.26056,-5.65147 -10.73763,-6.7816 -5.08626,-9.042303 17.5193,-7.34682 10.1725,-12.43293 7.34681,-12.43309 z"
       style="fill:#008080;stroke:#000000;stroke-width:4.76431227;stroke-linecap:butt;stroke-linejoin:miter;stroke-miterlimit:4;stroke-opacity:1;stroke-dasharray:none" />
    <path
       sodipodi:nodetypes="ccccccccccccccccccccccccccccccccc"
       inkscape:connector-curvature="0"
       id="path3120"
       d="m -184.7215,-33.468763 -26.56153,-3.95596 9.60735,-62.730417 64.42583,10.172497 -11.38665,63.50325 -23.08682,-4.75075 9.58541,16.34905 7.9339,38.49135 -6.78166,22.04043 -10.1725,10.73756 16.38901,25.43125 10.73765,22.605663 20.91013,-6.781773 5.79717,14.000793 -18.23022,8.60487 -24.94998,4.62695 -2.17668,-17.6251 -10.1725,-26.561673 -19.77986,-21.47523 -3.95598,-8.47706 -1.13027,-10.73765 9.04222,-16.95416 2.26056,-17.5193005 0.56513,-14.69361 -23.73582,10.1725 0,24.8661105 7.3468,1.13028 -5.65138,25.43124 -19.21473,-8.47708 4.52111,-19.77986 0.56513,-29.3872205 38.42945,-23.1706895 z"
       style="fill:#00caca;fill-opacity:1;stroke:#000000;stroke-width:4.76431227;stroke-linecap:butt;stroke-linejoin:miter;stroke-miterlimit:4;stroke-opacity:1;stroke-dasharray:none" />
  </g>
</svg>
